<svg width="40" height="40" viewBox="0 0 40 40" fill="none" xmlns="http://www.w3.org/2000/svg">
<path d="M8.95357 40H0.660714V13.294H8.95357V40ZM4.80268 9.65111C2.15089 9.65111 0 7.45463 0 4.80279C1.89803e-08 3.52901 0.505995 2.3074 1.40667 1.4067C2.30735 0.506006 3.52893 0 4.80268 0C6.07643 0 7.29801 0.506006 8.19868 1.4067C9.09936 2.3074 9.60536 3.52901 9.60536 4.80279C9.60536 7.45463 7.45357 9.65111 4.80268 9.65111ZM39.9911 40H31.7161V26.9997C31.7161 23.9014 31.6536 19.9281 27.4045 19.9281C23.0929 19.9281 22.4321 23.2943 22.4321 26.7765V40H14.1482V13.294H22.1018V16.937H22.2179C23.325 14.8387 26.0295 12.6244 30.0643 12.6244C38.4571 12.6244 40 18.1513 40 25.33V40H39.9911Z" fill="white"/>
</svg>
