<svg width="40" height="40" viewBox="0 0 40 40" fill="none" xmlns="http://www.w3.org/2000/svg">
<path d="M11.1111 35C9.33333 35 7.55556 33.25 6.66667 32.5C2.22222 29 0.888889 27.75 0 27V37.5C0 38.8805 0.995139 40 2.22222 40H20C21.2271 40 22.2222 38.8805 22.2222 37.5V27C21.3333 27.75 20 29 15.5556 32.5C14.6667 33.25 12.8889 35 11.1111 35ZM20 20H2.22222C0.995139 20 0 21.1195 0 22.5V23.75C1.77778 25.25 1.55556 25.25 8 30.5C8.66667 31 10 32.5 11.1111 32.5C12.2222 32.5 13.5556 31 14.2222 30.75C20.6667 25.5 20.4444 25.5 22.2222 24V22.5C22.2222 21.1195 21.2271 20 20 20ZM37.7778 12.5H15.5556C14.3285 12.5 13.3333 13.6195 13.3333 15V17.5H20C22.3063 17.5 24.2076 19.4859 24.4243 22.0172L24.4444 22V32.5H37.7778C39.0049 32.5 40 31.3805 40 30V15C40 13.6195 39.0049 12.5 37.7778 12.5ZM35.5556 22.5H31.1111V17.5H35.5556V22.5ZM11.1111 15C11.1111 12.243 13.1049 10 15.5556 10H31.1111V2.5C31.1111 1.11953 30.116 0 28.8889 0H6.66667C5.43958 0 4.44444 1.11953 4.44444 2.5V17.5H11.1111V15Z" fill="white"/>
</svg>
