<svg width="100" height="100" viewBox="0 0 100 100" fill="none" xmlns="http://www.w3.org/2000/svg">
<path d="M18.2246 71.3767L19.181 69.6202L18.2246 71.3767L46.6532 86.8545C48.74 87.9906 51.2607 87.9906 53.3476 86.8545L81.7761 71.3767C84.0276 70.1509 85.429 67.7924 85.429 65.2288V34.7704C85.429 32.2068 84.0276 29.8483 81.7761 28.6225L53.3476 13.1448C51.2607 12.0086 48.74 12.0086 46.6532 13.1448L18.2246 28.6225C15.9731 29.8483 14.5718 32.2068 14.5718 34.7704V65.2288C14.5718 67.7924 15.9731 70.1509 18.2246 71.3767Z" stroke="white" stroke-width="4"/>
<path d="M36.5834 51.9524C35.6127 53.2217 35.1274 54.5937 35.1274 56.0684C35.1274 57.8231 35.8647 59.1857 37.3394 60.1564C38.198 60.7351 39.1687 61.0244 40.2514 61.0244C41.3527 61.0244 42.3047 60.8097 43.1074 60.3804C44.6194 59.5964 45.4687 58.2804 45.6554 56.4324C45.674 56.3017 45.6834 56.1711 45.6834 56.0404C45.6834 55.3497 45.4874 54.6031 45.0954 53.8004C44.722 52.9977 44.106 52.2604 43.2474 51.5884L38.2074 47.6124C37.106 46.7537 36.5554 45.6431 36.5554 44.2804C36.5554 42.9177 36.994 41.7697 37.8714 40.8364C38.7487 39.8844 39.934 39.4084 41.4274 39.4084C42.174 39.4084 42.986 39.5017 43.8634 39.6884H44.9834L45.0394 43.1324H44.7594C44.7407 42.2364 44.414 41.5364 43.7794 41.0324C43.1634 40.5097 42.3794 40.2484 41.4274 40.2484C40.494 40.2484 39.71 40.5657 39.0754 41.2004C38.4407 41.8164 38.1234 42.6191 38.1234 43.6084C38.1234 44.5791 38.534 45.3911 39.3554 46.0444L44.5354 50.1324C46.5887 51.7564 47.6154 53.7164 47.6154 56.0124C47.6154 57.7297 46.934 59.2044 45.5714 60.4364C44.3954 61.5004 42.8274 62.0324 40.8674 62.0324C39.6727 62.0324 38.6087 61.8084 37.6754 61.3604C35.9207 60.5391 34.866 59.1391 34.5114 57.1604C34.4554 56.8617 34.4274 56.4884 34.4274 56.0404C34.4274 55.5737 34.558 54.9484 34.8194 54.1644C35.0807 53.3617 35.5847 52.5591 36.3314 51.7564L36.5834 51.9524ZM56.0666 59.1204H56.4306V59.4004H50.2986V59.1204H50.6626C51.1479 59.1204 51.5586 58.9524 51.8946 58.6164C52.2492 58.2617 52.4359 57.8417 52.4546 57.3564V41.8164C52.4359 41.3311 52.2492 40.9204 51.8946 40.5844C51.5586 40.2484 51.1479 40.0804 50.6626 40.0804H50.2986V39.8004H56.4306V40.0804H56.0666C55.5812 40.0804 55.1612 40.2484 54.8066 40.5844C54.4706 40.9204 54.2932 41.3311 54.2746 41.8164V57.3564C54.2746 57.8417 54.4519 58.2617 54.8066 58.6164C55.1612 58.9524 55.5812 59.1204 56.0666 59.1204ZM75.4706 63.6004V63.8804C74.7612 64.0484 74.0519 64.1324 73.3426 64.1324C70.2812 64.1324 67.3132 62.6017 64.4386 59.5404L55.1706 49.6564L61.7786 41.3684C61.9279 41.1817 62.0026 41.0137 62.0026 40.8644C62.0026 40.7151 61.9746 40.5844 61.9186 40.4724C61.7692 40.1924 61.4986 40.0524 61.1066 40.0524H60.8266V39.8004H66.7346V40.0524H66.6226C65.3906 40.0524 64.3826 40.4911 63.5986 41.3684L57.0746 48.9004L66.5946 59.0644C67.8266 60.3897 69.2079 61.4724 70.7386 62.3124C72.2879 63.1711 73.8652 63.6004 75.4706 63.6004Z" fill="white" fill-opacity="0.4"/>
<path d="M35.7836 51.9524C34.8129 53.2217 34.3276 54.5937 34.3276 56.0684C34.3276 57.8231 35.0649 59.1857 36.5396 60.1564C37.3982 60.7351 38.3689 61.0244 39.4516 61.0244C40.5529 61.0244 41.5049 60.8097 42.3076 60.3804C43.8196 59.5964 44.6689 58.2804 44.8556 56.4324C44.8742 56.3017 44.8836 56.1711 44.8836 56.0404C44.8836 55.3497 44.6876 54.6031 44.2956 53.8004C43.9222 52.9977 43.3062 52.2604 42.4476 51.5884L37.4076 47.6124C36.3062 46.7537 35.7556 45.6431 35.7556 44.2804C35.7556 42.9177 36.1942 41.7697 37.0716 40.8364C37.9489 39.8844 39.1342 39.4084 40.6276 39.4084C41.3742 39.4084 42.1862 39.5017 43.0636 39.6884H44.1836L44.2396 43.1324H43.9596C43.9409 42.2364 43.6142 41.5364 42.9796 41.0324C42.3636 40.5097 41.5796 40.2484 40.6276 40.2484C39.6942 40.2484 38.9102 40.5657 38.2756 41.2004C37.6409 41.8164 37.3236 42.6191 37.3236 43.6084C37.3236 44.5791 37.7342 45.3911 38.5556 46.0444L43.7356 50.1324C45.7889 51.7564 46.8156 53.7164 46.8156 56.0124C46.8156 57.7297 46.1342 59.2044 44.7716 60.4364C43.5956 61.5004 42.0276 62.0324 40.0676 62.0324C38.8729 62.0324 37.8089 61.8084 36.8756 61.3604C35.1209 60.5391 34.0662 59.1391 33.7116 57.1604C33.6556 56.8617 33.6276 56.4884 33.6276 56.0404C33.6276 55.5737 33.7582 54.9484 34.0196 54.1644C34.2809 53.3617 34.7849 52.5591 35.5316 51.7564L35.7836 51.9524ZM55.2668 59.1204H55.6308V59.4004H49.4988V59.1204H49.8628C50.3481 59.1204 50.7588 58.9524 51.0948 58.6164C51.4494 58.2617 51.6361 57.8417 51.6548 57.3564V41.8164C51.6361 41.3311 51.4494 40.9204 51.0948 40.5844C50.7588 40.2484 50.3481 40.0804 49.8628 40.0804H49.4988V39.8004H55.6308V40.0804H55.2668C54.7814 40.0804 54.3614 40.2484 54.0068 40.5844C53.6708 40.9204 53.4934 41.3311 53.4748 41.8164V57.3564C53.4748 57.8417 53.6521 58.2617 54.0068 58.6164C54.3614 58.9524 54.7814 59.1204 55.2668 59.1204ZM74.6708 63.6004V63.8804C73.9614 64.0484 73.2521 64.1324 72.5428 64.1324C69.4814 64.1324 66.5134 62.6017 63.6388 59.5404L54.3708 49.6564L60.9788 41.3684C61.1281 41.1817 61.2028 41.0137 61.2028 40.8644C61.2028 40.7151 61.1748 40.5844 61.1188 40.4724C60.9694 40.1924 60.6988 40.0524 60.3068 40.0524H60.0268V39.8004H65.9348V40.0524H65.8228C64.5908 40.0524 63.5828 40.4911 62.7988 41.3684L56.2748 48.9004L65.7948 59.0644C67.0268 60.3897 68.4081 61.4724 69.9388 62.3124C71.4881 63.1711 73.0654 63.6004 74.6708 63.6004Z" fill="white"/>
</svg>
