<svg width="260" height="260" viewBox="0 0 260 260" fill="none" xmlns="http://www.w3.org/2000/svg">
<rect width="260" height="260" fill="white"/>
<rect width="260" height="260" fill="white"/>
<rect width="260" height="260" fill="url(#paint0_linear_0_1)"/>
<path d="M21.2553 132.4C17.2553 138.8 15.2553 145.35 15.2553 152.05C15.2553 159.35 17.9053 166 23.2053 172C26.1053 175.4 29.7553 178.05 34.1553 179.95C38.6553 181.85 43.5553 182.8 48.8553 182.8C54.1553 182.8 58.9053 181.8 63.1053 179.8C71.5053 175.7 75.7053 169 75.7053 159.7C75.7053 156.2 74.5053 152.5 72.1053 148.6C69.8053 144.7 66.3053 141.2 61.6053 138.1L36.1053 121C26.2053 114.8 21.2553 106.8 21.2553 97C21.2553 96 21.3053 95 21.4053 94C22.0053 86.3 25.0553 80.05 30.5553 75.25C36.1553 70.35 43.6053 67.9 52.9053 67.9C58.6053 67.9 65.5053 68.4 73.6053 69.4H82.9053L80.9553 91.45H79.6053C79.5053 86.25 77.5053 82.1 73.6053 79C69.7053 75.8 64.5553 74.2 58.1553 74.2C50.3553 74.2 44.7053 76.55 41.2053 81.25C39.5053 83.65 38.6553 86.25 38.6553 89.05C38.6553 91.85 39.5053 94.25 41.2053 96.25C42.9053 98.15 45.6053 100.25 49.3053 102.55L77.3553 120.85C83.0553 124.55 87.5053 128.9 90.7053 133.9C94.5053 139.8 96.4053 145.85 96.4053 152.05C96.4053 156.05 95.5553 160.3 93.8553 164.8C92.2553 169.2 89.5553 173.3 85.7553 177.1C82.0553 180.9 77.2553 184 71.3553 186.4C65.4553 188.8 58.9053 190 51.7053 190C44.6053 190 38.1553 188.75 32.3553 186.25C21.6553 181.75 14.8553 173.9 11.9553 162.7C11.3553 160.3 11.0553 157.8 11.0553 155.2C11.0553 146.8 14.0053 138.85 19.9053 131.35L21.2553 132.4ZM107.983 173.5C110.583 173.5 112.783 172.6 114.583 170.8C116.483 168.9 117.483 166.65 117.583 164.05V80.8C117.483 77.2 115.833 74.5 112.633 72.7C111.233 71.9 109.683 71.5 107.983 71.5H106.033V70H151.633L151.483 71.5H149.683C147.083 71.5 144.833 72.4 142.933 74.2C141.033 76 140.083 78.2 140.083 80.8V164.05C140.083 166.65 141.033 168.9 142.933 170.8C144.833 172.6 147.083 173.5 149.683 173.5H151.483L151.633 175H106.033V173.5H107.983ZM256.933 200.5C249.633 204.3 242.983 206.2 236.983 206.2C230.983 206.2 225.583 205.35 220.783 203.65C208.883 199.35 196.733 189.5 184.333 174.1L144.883 125.5L180.433 78.4C181.233 77.4 181.633 76.5 181.633 75.7C181.633 74.9 181.483 74.2 181.183 73.6C180.383 72.1 178.983 71.35 176.983 71.35H175.483V70H209.833V71.35H209.233C202.533 71.35 197.083 73.75 192.883 78.55L163.633 113.35L204.433 164.05C213.533 176.05 222.083 184.75 230.083 190.15C238.083 195.55 246.983 198.5 256.783 199L256.933 200.5Z" fill="white"/>
<defs>
<linearGradient id="paint0_linear_0_1" x1="260" y1="130" x2="0" y2="130" gradientUnits="userSpaceOnUse">
<stop stop-color="#42275A"/>
<stop offset="1" stop-color="#734B6D"/>
</linearGradient>
</defs>
</svg>
